<?xml version="1.0" encoding="UTF-8" standalone="no"?>
<!-- Created with Inkscape (http://www.inkscape.org/) -->

<svg
   xmlns:dc="http://purl.org/dc/elements/1.1/"
   xmlns:cc="http://creativecommons.org/ns#"
   xmlns:rdf="http://www.w3.org/1999/02/22-rdf-syntax-ns#"
   xmlns:svg="http://www.w3.org/2000/svg"
   xmlns="http://www.w3.org/2000/svg"
   xmlns:sodipodi="http://sodipodi.sourceforge.net/DTD/sodipodi-0.dtd"
   xmlns:inkscape="http://www.inkscape.org/namespaces/inkscape"
   width="30"
   height="30"
   id="svg3792"
   version="1.1"
   inkscape:version="0.48.4 r9939"
   sodipodi:docname="hidden.svg">
  <defs
     id="defs3794" />
  <sodipodi:namedview
     id="base"
     pagecolor="#ffffff"
     bordercolor="#666666"
     borderopacity="1.0"
     inkscape:pageopacity="0.0"
     inkscape:pageshadow="2"
     inkscape:zoom="22.4"
     inkscape:cx="9.6644635"
     inkscape:cy="17.330652"
     inkscape:document-units="px"
     inkscape:current-layer="g4440"
     showgrid="false"
     inkscape:window-width="1920"
     inkscape:window-height="1003"
     inkscape:window-x="-9"
     inkscape:window-y="-9"
     inkscape:window-maximized="1" />
  <metadata
     id="metadata3797">
    <rdf:RDF>
      <cc:Work
         rdf:about="">
        <dc:format>image/svg+xml</dc:format>
        <dc:type
           rdf:resource="http://purl.org/dc/dcmitype/StillImage" />
      </cc:Work>
    </rdf:RDF>
  </metadata>
  <g
     inkscape:label="Ebene 1"
     inkscape:groupmode="layer"
     id="layer1"
     transform="translate(0,-1022.3622)"
     style="display:inline">
    <g
       id="g4440"
       transform="matrix(1.3,0,0,1.3,-4.5601999,-311.33719)">
      <path
         inkscape:connector-curvature="0"
         id="path4385"
         d="m 20.801905,1033.8503 c 1.904995,1.2944 3.380332,2.7454 3.380332,3.1648 l 0,0 c 0,0.8053 -5.440375,5.2264 -8.916469,5.2264 -0.934238,0 -2.015933,-0.3283 -3.099363,-0.8217"
         style="fill:none;stroke:#7d7d7d;stroke-width:2.02838492000000010;stroke-miterlimit:4;stroke-opacity:1" />
      <path
         sodipodi:nodetypes="ccsc"
         inkscape:connector-curvature="0"
         id="path4381"
         d="m 10.889776,1040.7674 c -1.1304595,-1.5701 -4.6373716,-3.3267 -4.6703022,-3.7523 -0.053434,-0.6904 5.5701992,-5.4148 9.0462942,-5.4148 1.288995,0 3.65166,0.6338 4.299724,1.4725"
         style="fill:none;stroke:#7d7d7d;stroke-width:2.02838492000000010;stroke-miterlimit:4;stroke-opacity:1" />
      <rect
         transform="matrix(-0.75207633,-0.65907601,-0.75207633,0.65907601,0,0)"
         y="766.04358"
         x="-798.92853"
         height="20.683046"
         width="1.3982905"
         id="rect4370"
         style="fill:#7d7d7d;fill-opacity:1;stroke:none" />
    </g>
  </g>
  <g
     inkscape:groupmode="layer"
     id="layer2"
     inkscape:label="pupille"
     style="display:inline">
    <g
       id="g4436"
       transform="matrix(1.3,0,0,1.3,-4.575,-4.369419)">
      <path
         inkscape:connector-curvature="0"
         id="path4433"
         d="m 13.65625,17.080355 c 0.53976,0.14477 0.972242,0.40625 1.59375,0.40625 2.514868,0 4.5625,-1.291309 4.5625,-2.90625 l -3.3125,0 -2.84375,2.5 z"
         style="fill:#7d7d7d;fill-opacity:1;stroke:none" />
      <path
         inkscape:connector-curvature="0"
         id="path4431"
         d="m 15.25,13.830355 -0.03125,-2.1875 c -2.499668,0.01365 -4.53125,1.332262 -4.53125,2.9375 0,0.80747 0.519716,1.53334 1.34375,2.0625 l 3.21875,-2.8125 z"
         style="fill:#7d7d7d;fill-opacity:1;stroke:none" />
    </g>
  </g>
</svg>
