<?xml version="1.0" encoding="utf-8"?>
<!-- Generator: Adobe Illustrator 21.1.0, SVG Export Plug-In . SVG Version: 6.00 Build 0)  -->
<svg version="1.1" id="Trend" xmlns="http://www.w3.org/2000/svg" xmlns:xlink="http://www.w3.org/1999/xlink" x="0px" y="0px"
	 viewBox="0 0 28 28" style="enable-background:new 0 0 28 28;" xml:space="preserve">
<style type="text/css">
	.st0{fill:none;}
</style>
<rect id="Container" class="st0" width="28" height="28"/>
<path id="Vergrößern" d="M17,7h-2v3h-3v2h3v3h2v-3h3v-2h-3V7z M16,3.1c-4.3,0-7.8,3.5-7.8,7.8c0,1.9,0.7,3.6,1.7,4.9l-6.1,6.1
	L6,24.1l6.3-6.3c1.1,0.6,2.3,0.9,3.7,0.9c4.3,0,7.8-3.5,7.8-7.8C23.8,6.6,20.3,3.1,16,3.1z M16,17.4c-3.6,0-6.5-2.9-6.5-6.5
	c0-3.6,2.9-6.5,6.5-6.5s6.5,2.9,6.5,6.5C22.4,14.5,19.5,17.4,16,17.4z"/>
</svg>
