<svg id="Trend" xmlns="http://www.w3.org/2000/svg" viewBox="0 0 28 28"><defs><style>.cls-1{fill:none;opacity:0;}</style></defs><title>Zeit</title><rect id="Container" class="cls-1" width="28" height="28"/><path id="Zeit" d="M11.39,14.2a7.61,7.61,0,0,0,1.18-1.59,2.93,2.93,0,0,0,.36-1.34,2.17,2.17,0,0,0-.72-1.73,2.89,2.89,0,0,0-2-.62,3.23,3.23,0,0,0-1.52.35,2.44,2.44,0,0,0-1,1,2.79,2.79,0,0,0-.35,1.4H8.79a1.66,1.66,0,0,1,.38-1.15,1.37,1.37,0,0,1,1.07-.42,1.19,1.19,0,0,1,.92.38,1.4,1.4,0,0,1,.34,1,1.86,1.86,0,0,1-.26.92,7.08,7.08,0,0,1-.88,1.15l-2.84,3.1v1h5.74V16.43h-4Zm6.22-3.09a2.23,2.23,0,0,0-1.76.81V8.57H14.42v9h1.42V13a1.37,1.37,0,0,1,1.28-.76,1.16,1.16,0,0,1,.83.27,1.25,1.25,0,0,1,.28.93v4.09h1.42V13.43Q19.63,11.11,17.6,11.11Z"/></svg>