<?xml version="1.0" encoding="utf-8"?>
<!-- Generator: Adobe Illustrator 15.0.2, SVG Export Plug-In . SVG Version: 6.00 Build 0)  -->
<!DOCTYPE svg PUBLIC "-//W3C//DTD SVG 1.1//EN" "http://www.w3.org/Graphics/SVG/1.1/DTD/svg11.dtd">
<svg version="1.1" id="Ebene_1" xmlns="http://www.w3.org/2000/svg" xmlns:xlink="http://www.w3.org/1999/xlink" x="0px" y="0px"
	 width="45px" height="45px" viewBox="0 0 45 45" enable-background="new 0 0 45 45" xml:space="preserve">
<ellipse fill="#FFFFFF" stroke="#FFFFFF" stroke-miterlimit="10" cx="22.669" cy="23.055" rx="20.898" ry="20.671"/>
<g>
	<path fill="#00ABF0" d="M19.34,15.705c-0.288-0.291-0.432-0.649-0.432-1.075c0-0.387,0.112-0.716,0.336-0.988
		c0.224-0.271,0.496-0.407,0.815-0.407c0.288,0,0.52,0.097,0.696,0.291l0.024,0.029l7.817,7.033c0.368,0.349,0.668,0.79,0.899,1.322
		c0.232,0.533,0.348,1.109,0.348,1.729c0,0.581-0.104,1.129-0.312,1.642c-0.207,0.514-0.495,0.945-0.863,1.294l-7.794,7.062
		c-0.111,0.116-0.235,0.213-0.372,0.29c-0.136,0.078-0.284,0.116-0.444,0.116c-0.319,0-0.591-0.135-0.815-0.406
		c-0.224-0.271-0.336-0.601-0.336-0.988c0-0.465,0.152-0.833,0.456-1.104l7.458-6.771c0.128-0.136,0.268-0.306,0.42-0.509
		s0.228-0.412,0.228-0.625s-0.075-0.422-0.228-0.625c-0.152-0.204-0.292-0.363-0.42-0.479L19.34,15.705z"/>
</g>
</svg>
