<?xml version="1.0" encoding="utf-8"?>
<!-- Generator: Adobe Illustrator 15.0.2, SVG Export Plug-In . SVG Version: 6.00 Build 0)  -->
<!DOCTYPE svg PUBLIC "-//W3C//DTD SVG 1.1//EN" "http://www.w3.org/Graphics/SVG/1.1/DTD/svg11.dtd">
<svg version="1.1" id="Ebene_1" xmlns="http://www.w3.org/2000/svg" xmlns:xlink="http://www.w3.org/1999/xlink" x="0px" y="0px"
	 width="45px" height="45px" viewBox="0 0 45 45" enable-background="new 0 0 45 45" xml:space="preserve">
<ellipse fill="#DCDCDC" stroke="#DCDCDC" stroke-miterlimit="10" cx="22.669" cy="23.055" rx="20.897" ry="20.671"/>
<g>
	<path fill="#FFFFFF" d="M19.34,15.706c-0.288-0.291-0.432-0.649-0.432-1.075c0-0.387,0.112-0.716,0.336-0.988
		c0.224-0.271,0.496-0.407,0.815-0.407c0.288,0,0.52,0.097,0.696,0.291l0.024,0.029l7.819,7.033c0.367,0.349,0.668,0.79,0.898,1.322
		c0.232,0.533,0.348,1.11,0.348,1.729c0,0.58-0.104,1.129-0.312,1.643c-0.207,0.513-0.495,0.943-0.863,1.293l-7.794,7.063
		c-0.111,0.115-0.235,0.213-0.372,0.289c-0.136,0.078-0.284,0.116-0.444,0.116c-0.319,0-0.591-0.135-0.815-0.405
		c-0.224-0.271-0.336-0.602-0.336-0.988c0-0.465,0.152-0.834,0.456-1.104l7.458-6.771c0.128-0.137,0.268-0.307,0.42-0.51
		s0.229-0.41,0.229-0.625c0-0.213-0.076-0.42-0.229-0.625c-0.152-0.203-0.292-0.363-0.42-0.479L19.34,15.706z"/>
</g>
</svg>
