<?xml version="1.0" encoding="utf-8"?>
<!-- Generator: Adobe Illustrator 17.0.0, SVG Export Plug-In . SVG Version: 6.00 Build 0)  -->
<!DOCTYPE svg PUBLIC "-//W3C//DTD SVG 1.1//EN" "http://www.w3.org/Graphics/SVG/1.1/DTD/svg11.dtd">
<svg version="1.1" id="Ebene_1" xmlns="http://www.w3.org/2000/svg" xmlns:xlink="http://www.w3.org/1999/xlink" x="0px" y="0px"
	 width="28px" height="28px" viewBox="0 0 28 28" enable-background="new 0 0 28 28" xml:space="preserve">
	<g id="ico_x5F_service_x5F_outline.svg">
		<g opacity="0">
			<rect x="0" opacity="0.3" fill-rule="evenodd" clip-rule="evenodd" fill="#5B5B5B" width="28" height="28"/>
		</g>
		<g>
			<path fill-rule="evenodd" clip-rule="evenodd" fill="#9bc628" d="M14,22.7c-4.8,0-8.7-3.9-8.7-8.7S9.2,5.3,14,5.3s8.7,3.9,8.7,8.7
				S18.8,22.7,14,22.7z"/>
			<path fill="#FFFFFF" d="M14,5.8c4.5,0,8.2,3.7,8.2,8.2s-3.7,8.2-8.2,8.2S5.8,18.5,5.8,14S9.5,5.8,14,5.8 M14,4.8
				c-5.1,0-9.2,4.1-9.2,9.2s4.1,9.2,9.2,9.2s9.2-4.1,9.2-9.2S19.1,4.8,14,4.8L14,4.8z"/>
		</g>
		<path fill="#FFFFFF" d="M16.8,13.5c-0.4,0.3-0.9,0.2-1.2,0c-0.3-0.2-1-1.1-1.2-1.3s-0.2-0.7,0.2-1c0.3-0.2,1.9-1.4,1.9-1.4V9.3
			c-1.3,0-3,0-3.9,1.7c0,1.1,0,2,0,2.2s0,0.4-0.2,0.7c-0.4,0.5-3.1,4.3-3.1,4.3l1.3,1c0,0,3.7-3.2,3.9-3.4c0.2-0.2,0.5-0.4,1-0.4
			c2,0,3.3-1.2,3.3-3.3l-0.4,0C18.3,12.2,17,13.3,16.8,13.5z"/>
	</g>
</svg>
