<?xml version="1.0" encoding="UTF-8"?>
<svg width="40px" height="40px" viewBox="0 0 40 40" version="1.1" xmlns="http://www.w3.org/2000/svg" xmlns:xlink="http://www.w3.org/1999/xlink">
    <!-- Generator: sketchtool 63.1 (101010) - https://sketch.com -->
    <title>806ed5ee-b1e9-4657-987b-079254218118@1.00x</title>
    <desc>Created with sketchtool.</desc>
    <g id="Page-1" stroke="none" stroke-width="1" fill="none" fill-rule="evenodd">
        <g id="ControlIcon/Table/Sorting/Disabled" fill="#DADADA">
            <g id="Molecule/-Tile/-Content/-Big-Copy-7" transform="translate(20.000000, 10.000000) rotate(-180.000000) translate(-20.000000, -10.000000) translate(2.000000, 2.000000)">
                <path d="M32.7778909,0.407969003 C33.6522554,-0.252492248 34.9082247,-0.0943073478 35.583177,0.761284867 C36.2243816,1.57409747 36.1105476,2.72391436 35.347903,3.40312698 L35.2221091,3.5063425 L19.2221091,15.592126 C18.5471442,16.1019685 17.6222794,16.1338337 16.916077,15.6877215 L16.7778909,15.592126 L0.777890888,3.5063425 C-0.096473609,2.84588124 -0.258129195,1.61687708 0.41682303,0.761284867 C1.05802764,-0.0515277371 2.22360022,-0.23493024 3.08821273,0.315024506 L3.22210911,0.407969003 L18,11.5692596 L32.7778909,0.407969003 Z" id="Path"></path>
            </g>
            <g id="Molecule/-Tile/-Content/-Big-Copy-7" transform="translate(20.000000, 30.000000) rotate(-180.000000) translate(-20.000000, -30.000000) translate(2.000000, 22.000000)">
                <path d="M32.7778909,0.407969003 C33.6522554,-0.252492248 34.9082247,-0.0943073478 35.583177,0.761284867 C36.2243816,1.57409747 36.1105476,2.72391436 35.347903,3.40312698 L35.2221091,3.5063425 L19.2221091,15.592126 C18.5471442,16.1019685 17.6222794,16.1338337 16.916077,15.6877215 L16.7778909,15.592126 L0.777890888,3.5063425 C-0.096473609,2.84588124 -0.258129195,1.61687708 0.41682303,0.761284867 C1.05802764,-0.0515277371 2.22360022,-0.23493024 3.08821273,0.315024506 L3.22210911,0.407969003 L18,11.5692596 L32.7778909,0.407969003 Z" id="Path" transform="translate(18.000000, 8.000000) rotate(-180.000000) translate(-18.000000, -8.000000) "></path>
            </g>
        </g>
    </g>
</svg>