<?xml version="1.0" encoding="UTF-8" standalone="no"?>
<!-- Generator: Adobe Illustrator 17.0.0, SVG Export Plug-In . SVG Version: 6.00 Build 0)  -->

<svg
   xmlns:dc="http://purl.org/dc/elements/1.1/"
   xmlns:cc="http://creativecommons.org/ns#"
   xmlns:rdf="http://www.w3.org/1999/02/22-rdf-syntax-ns#"
   xmlns:svg="http://www.w3.org/2000/svg"
   xmlns="http://www.w3.org/2000/svg"
   xmlns:sodipodi="http://sodipodi.sourceforge.net/DTD/sodipodi-0.dtd"
   xmlns:inkscape="http://www.inkscape.org/namespaces/inkscape"
   version="1.1"
   id="Ebene_1"
   x="0px"
   y="0px"
   width="20"
   height="20"
   viewBox="0 0 20 20"
   enable-background="new 0 0 28 28"
   xml:space="preserve"
   sodipodi:docname="ico_service_outline.svg"
   inkscape:version="0.92.2 (5c3e80d, 2017-08-06)"><metadata
     id="metadata50"><rdf:RDF><cc:Work
         rdf:about=""><dc:format>image/svg+xml</dc:format><dc:type
           rdf:resource="http://purl.org/dc/dcmitype/StillImage" /><dc:title></dc:title></cc:Work></rdf:RDF></metadata><defs
     id="defs48" /><sodipodi:namedview
     pagecolor="#ffffff"
     bordercolor="#666666"
     borderopacity="1"
     objecttolerance="10"
     gridtolerance="10"
     guidetolerance="10"
     inkscape:pageopacity="0"
     inkscape:pageshadow="2"
     inkscape:window-width="1920"
     inkscape:window-height="1017"
     id="namedview46"
     showgrid="false"
     inkscape:zoom="28.578125"
     inkscape:cx="14"
     inkscape:cy="14"
     inkscape:window-x="3832"
     inkscape:window-y="-8"
     inkscape:window-maximized="1"
     inkscape:current-layer="Ebene_1" /><g
     id="g10"
     transform="matrix(1.0722657,0,0,1.0722657,-5.0357762,-5.0226544)"><path
       style="clip-rule:evenodd;fill:#14984c;fill-rule:evenodd"
       inkscape:connector-curvature="0"
       id="path6"
       d="M 14,22.7 C 9.2,22.7 5.3,18.8 5.3,14 5.3,9.2 9.2,5.3 14,5.3 c 4.8,0 8.7,3.9 8.7,8.7 0,4.8 -3.9,8.7 -8.7,8.7 z" /><path
       style="fill:#ffffff"
       inkscape:connector-curvature="0"
       id="path8"
       d="m 14,5.8 c 4.5,0 8.2,3.7 8.2,8.2 0,4.5 -3.7,8.2 -8.2,8.2 C 9.5,22.2 5.8,18.5 5.8,14 5.8,9.5 9.5,5.8 14,5.8 m 0,-1 c -5.1,0 -9.2,4.1 -9.2,9.2 0,5.1 4.1,9.2 9.2,9.2 5.1,0 9.2,-4.1 9.2,-9.2 0,-5.1 -4.1,-9.2 -9.2,-9.2 z" /></g><path
     style="fill:#ffffff;stroke-width:1.07226562"
     inkscape:connector-curvature="0"
     id="path12"
     d="m 12.978287,9.452932 c -0.428906,0.3216797 -0.965039,0.2144531 -1.286719,0 C 11.369889,9.2384791 10.619303,8.2734399 10.404849,8.0589868 10.190396,7.8445337 10.190396,7.3084008 10.619303,6.9867211 10.940982,6.772268 12.656607,5.4855492 12.656607,5.4855492 V 4.9494164 c -1.393945,0 -3.2167967,0 -4.1818358,1.8228516 0,1.1794922 0,2.1445314 0,2.3589845 0,0.2144529 0,0.428906 -0.2144531,0.7505857 C 7.8314118,10.417971 4.9362945,14.492581 4.9362945,14.492581 l 1.3939454,1.072265 c 0,0 3.9673831,-3.43125 4.1818361,-3.645703 0.214453,-0.214453 0.536133,-0.428906 1.072266,-0.428906 2.144531,0 3.538476,-1.286719 3.538476,-3.5384768 H 14.693912 C 14.586686,8.0589868 13.19274,9.2384791 12.978287,9.452932 Z" /><g
     id="g15"
     transform="matrix(1.0722657,0,0,1.0722657,-5.0357762,-5.0226544)" /><g
     id="g17"
     transform="matrix(1.0722657,0,0,1.0722657,-5.0357762,-5.0226544)" /><g
     id="g19"
     transform="matrix(1.0722657,0,0,1.0722657,-5.0357762,-5.0226544)" /><g
     id="g21"
     transform="matrix(1.0722657,0,0,1.0722657,-5.0357762,-5.0226544)" /><g
     id="g23"
     transform="matrix(1.0722657,0,0,1.0722657,-5.0357762,-5.0226544)" /><g
     id="g25"
     transform="matrix(1.0722657,0,0,1.0722657,-5.0357762,-5.0226544)" /><g
     id="g27"
     transform="matrix(1.0722657,0,0,1.0722657,-5.0357762,-5.0226544)" /><g
     id="g29"
     transform="matrix(1.0722657,0,0,1.0722657,-5.0357762,-5.0226544)" /><g
     id="g31"
     transform="matrix(1.0722657,0,0,1.0722657,-5.0357762,-5.0226544)" /><g
     id="g33"
     transform="matrix(1.0722657,0,0,1.0722657,-5.0357762,-5.0226544)" /><g
     id="g35"
     transform="matrix(1.0722657,0,0,1.0722657,-5.0357762,-5.0226544)" /><g
     id="g37"
     transform="matrix(1.0722657,0,0,1.0722657,-5.0357762,-5.0226544)" /><g
     id="g39"
     transform="matrix(1.0722657,0,0,1.0722657,-5.0357762,-5.0226544)" /><g
     id="g41"
     transform="matrix(1.0722657,0,0,1.0722657,-5.0357762,-5.0226544)" /><g
     id="g43"
     transform="matrix(1.0722657,0,0,1.0722657,-5.0357762,-5.0226544)" /></svg>