<?xml version="1.0" encoding="utf-8"?>
<!-- Generator: Adobe Illustrator 15.0.2, SVG Export Plug-In . SVG Version: 6.00 Build 0)  -->
<!DOCTYPE svg PUBLIC "-//W3C//DTD SVG 1.1//EN" "http://www.w3.org/Graphics/SVG/1.1/DTD/svg11.dtd">
<svg version="1.1" id="Ebene_1" xmlns="http://www.w3.org/2000/svg" xmlns:xlink="http://www.w3.org/1999/xlink" x="0px" y="0px"
	 width="896px" height="896px" viewBox="0 0 896 896" enable-background="new 0 0 896 896" xml:space="preserve">
<path d="M448,0C200.576,0,0,200.576,0,448l0,0c0,247.425,200.576,448,448,448l0,0c247.424,0,448-200.575,448-448l0,0
	C896,200.576,695.424,0,448,0L448,0z M669.569,198.528c0.74-0.039,1.607-0.063,2.479-0.063s1.738,0.023,2.6,0.066l-0.121-0.005
	c26.542,1.197,47.607,23.006,47.607,49.735c0,10.021-2.962,19.353-8.059,27.163l0.117-0.191L465.304,673.456
	c-8.943,14.145-24.499,23.399-42.216,23.399c-13.732,0-26.167-5.561-35.174-14.552l-199.11-199.111
	c-9.44-9.074-15.305-21.808-15.305-35.91c0-27.494,22.289-49.783,49.783-49.783c14.103,0,26.836,5.864,35.895,15.288l0.016,0.018
	l154.875,154.875l215.736-345.14c8.375-13.731,22.886-23.006,39.626-24.007l0.137-0.007L669.569,198.528z"/>
</svg>
