<svg xmlns="http://www.w3.org/2000/svg" width="21" height="42.001" viewBox="0 0 21 42.001" preserveAspectRatio="none">
  <g id="Group_1473" data-name="Group 1473" transform="translate(-1414.001 -2032)">
    <g id="Union_3" data-name="Union 3" transform="translate(-10763 6617)" fill="#e80000">
      <path d="M 12187.5009765625 -4543.49951171875 C 12181.9873046875 -4543.49951171875 12177.5009765625 -4547.9853515625 12177.5009765625 -4553.49951171875 C 12177.5009765625 -4553.658203125 12177.5048828125 -4553.81787109375 12177.51171875 -4553.97509765625 L 12177.537109375 -4554.49853515625 L 12177.5009765625 -4554.49853515625 L 12177.5009765625 -4574.5 L 12177.5009765625 -4574.7373046875 L 12177.51171875 -4574.9755859375 C 12177.6328125 -4577.54541015625 12178.724609375 -4579.94287109375 12180.587890625 -4581.72607421875 C 12182.45703125 -4583.51513671875 12184.912109375 -4584.50048828125 12187.5009765625 -4584.50048828125 C 12190.0888671875 -4584.50048828125 12192.5439453125 -4583.51513671875 12194.4130859375 -4581.72607421875 C 12196.2763671875 -4579.9423828125 12197.369140625 -4577.544921875 12197.490234375 -4574.9755859375 L 12197.5009765625 -4574.7373046875 L 12197.5009765625 -4554.49853515625 L 12197.46484375 -4554.49853515625 L 12197.490234375 -4553.97509765625 C 12197.4970703125 -4553.81787109375 12197.5009765625 -4553.658203125 12197.5009765625 -4553.49951171875 C 12197.5009765625 -4547.9853515625 12193.0146484375 -4543.49951171875 12187.5009765625 -4543.49951171875 Z" stroke="none"/>
      <path d="M 12187.5009765625 -4543.99951171875 C 12192.7392578125 -4543.99951171875 12197.0009765625 -4548.26123046875 12197.0009765625 -4553.49951171875 C 12197.0009765625 -4553.650390625 12196.9970703125 -4553.80224609375 12196.990234375 -4553.951171875 L 12196.94140625 -4554.99853515625 L 12197.0009765625 -4554.99853515625 L 12197.0009765625 -4574.7255859375 L 12196.990234375 -4574.9521484375 C 12196.8759765625 -4577.39306640625 12195.837890625 -4579.67041015625 12194.0673828125 -4581.36474609375 C 12192.291015625 -4583.064453125 12189.958984375 -4584.00048828125 12187.5009765625 -4584.00048828125 C 12185.041015625 -4584.00048828125 12182.708984375 -4583.064453125 12180.93359375 -4581.36474609375 C 12179.1640625 -4579.6708984375 12178.1259765625 -4577.3935546875 12178.01171875 -4574.9521484375 L 12178.0009765625 -4574.7255859375 L 12178.0009765625 -4574.5 L 12178.0009765625 -4554.99853515625 L 12178.060546875 -4554.99853515625 L 12178.01171875 -4553.951171875 C 12178.0048828125 -4553.80224609375 12178.0009765625 -4553.650390625 12178.0009765625 -4553.49951171875 C 12178.0009765625 -4548.26123046875 12182.2626953125 -4543.99951171875 12187.5009765625 -4543.99951171875 M 12187.5009765625 -4542.99951171875 C 12181.7001953125 -4542.99951171875 12177.0009765625 -4547.70166015625 12177.0009765625 -4553.49951171875 C 12177.0009765625 -4553.6669921875 12177.0048828125 -4553.8330078125 12177.0126953125 -4553.99853515625 L 12177.0009765625 -4553.99853515625 L 12177.0009765625 -4574.5 L 12177.0009765625 -4574.9990234375 L 12177.0126953125 -4574.9990234375 C 12177.2734375 -4580.5654296875 12181.8671875 -4585.00048828125 12187.5009765625 -4585.00048828125 C 12193.1318359375 -4585.00048828125 12197.728515625 -4580.5654296875 12197.9892578125 -4574.9990234375 L 12198.0009765625 -4574.9990234375 L 12198.0009765625 -4553.99853515625 L 12197.9892578125 -4553.99853515625 C 12197.9970703125 -4553.8330078125 12198.0009765625 -4553.6669921875 12198.0009765625 -4553.49951171875 C 12198.0009765625 -4547.70166015625 12193.298828125 -4542.99951171875 12187.5009765625 -4542.99951171875 Z" stroke="none" fill="#e80000"/>
    </g>
  </g>
</svg>
