<!-- Generated by IcoMoon.io -->
<svg version="1.1" xmlns="http://www.w3.org/2000/svg" width="32" height="32" viewBox="0 0 32 32">
<title>ok_done</title>
<path d="M16 0c-8.837 0-16 7.163-16 16v0c0 8.837 7.163 16 16 16v0c8.837 0 16-7.163 16-16v0c0-8.837-7.163-16-16-16v0zM23.913 7.090c0.026-0.001 0.057-0.002 0.089-0.002s0.062 0.001 0.093 0.002l-0.004-0c0.948 0.043 1.7 0.822 1.7 1.776 0 0.358-0.106 0.691-0.288 0.97l0.004-0.007-8.889 14.222c-0.319 0.505-0.875 0.836-1.508 0.836-0.49 0-0.935-0.199-1.256-0.52l-7.111-7.111c-0.337-0.324-0.547-0.779-0.547-1.283 0-0.982 0.796-1.778 1.778-1.778 0.504 0 0.958 0.209 1.282 0.546l0.001 0.001 5.531 5.531 7.705-12.326c0.299-0.49 0.817-0.822 1.415-0.857l0.005-0z"></path>
</svg>
