<svg xmlns="http://www.w3.org/2000/svg" width="42.001" height="21" viewBox="0 0 42.001 21" preserveAspectRatio="none">
  <g id="Group_1474" data-name="Group 1474" transform="translate(42.001) rotate(90)">
    <g id="Union_3" data-name="Union 3" fill="#e80000">
      <path d="M 10.5 41.5009765625 C 7.911079883575439 41.5009765625 5.45589017868042 40.51562881469727 3.586709976196289 38.72644805908203 C 1.723790049552917 36.94326782226563 0.6315500140190125 34.54594802856445 0.5111700296401978 31.97610855102539 L 0.5 31.73759460449219 L 0.5 31.50048828125 L 0.5 11.49902820587158 L 0.5358700156211853 11.49902820587158 L 0.5111600160598755 10.97546863555908 C 0.5037599802017212 10.81844806671143 0.5 10.65847873687744 0.5 10.49999809265137 C 0.5 4.985978126525879 4.985980033874512 0.4999982714653015 10.5 0.4999982714653015 C 16.0140209197998 0.4999982714653015 20.5 4.985978126525879 20.5 10.49999809265137 C 20.5 10.65847873687744 20.49624061584473 10.81844806671143 20.48884010314941 10.97546863555908 L 20.46413040161133 11.49902820587158 L 20.5 11.49902820587158 L 20.5 31.73759460449219 L 20.48883056640625 31.97610855102539 C 20.36846923828125 34.54560852050781 19.27585029602051 36.94290924072266 17.41222953796387 38.72641754150391 C 15.54265975952148 40.51561737060547 13.08784961700439 41.5009765625 10.5 41.5009765625 Z" stroke="none"/>
      <path d="M 10.5 1 C 5.261679649353027 1 1 5.261676788330078 1 10.49999809265137 C 1 10.65065765380859 1.003570556640625 10.80269813537598 1.010610580444336 10.95188903808594 L 1.060020446777344 11.9990177154541 L 1 11.9990177154541 L 1 31.50048828125 L 1 31.72599792480469 L 1.0106201171875 31.95271873474121 C 1.124969482421875 34.39382934570313 2.162630081176758 36.67117691040039 3.932439804077148 38.36524963378906 C 5.708120346069336 40.0649299621582 8.040519714355469 41.0009765625 10.5 41.0009765625 C 12.95843029022217 41.0009765625 15.29046058654785 40.06489944458008 17.06653022766113 38.36517715454102 C 18.8370304107666 36.6707878112793 19.87504959106445 34.39346694946289 19.9893798828125 31.95271873474121 L 20 31.72599792480469 L 20 11.9990177154541 L 19.93997955322266 11.9990177154541 L 19.98938941955566 10.95188903808594 C 19.99642944335938 10.80269813537598 20 10.65065765380859 20 10.49999809265137 C 20 5.261676788330078 15.73831939697266 1 10.5 1 M 10.5 0 C 16.29784965515137 0 21 4.7021484375 21 10.49999809265137 C 21 10.66747856140137 20.99608993530273 10.83349800109863 20.98827934265137 10.9990177154541 L 21 10.9990177154541 L 21 31.99950790405273 L 20.98827934265137 31.99950790405273 C 20.7275390625 37.56591796875 16.130859375 42.0009765625 10.5 42.0009765625 C 4.8662109375 42.0009765625 0.2724609375 37.56591796875 0.01172065734863281 31.99950790405273 L 0 31.99950790405273 L 0 31.50048828125 L 0 10.9990177154541 L 0.01172065734863281 10.9990177154541 C 0.003910064697265625 10.83349800109863 0 10.66747856140137 0 10.49999809265137 C 0 4.7021484375 4.699220657348633 0 10.5 0 Z" stroke="none" fill="#e80000"/>
    </g>
  </g>
</svg>
