<svg id="Ebene_1" data-name="Ebene 1" xmlns="http://www.w3.org/2000/svg" width="24" height="24" viewBox="0 0 24 24"><rect width="24" height="24" fill="none"/><path d="M16.8,7H14a.94.94,0,0,0-1,1h0a.94.94,0,0,0,1,1h2.9A3.13,3.13,0,0,1,20,11.4,3,3,0,0,1,17.1,15h-3a.94.94,0,0,0-1,1h0a.94.94,0,0,0,1,1h3a5,5,0,0,0,5-5.5A5.37,5.37,0,0,0,16.8,7ZM10,15H7.1A3.13,3.13,0,0,1,4,12.6,3.12,3.12,0,0,1,7,9h3a.94.94,0,0,0,1-1h0a.94.94,0,0,0-1-1H7.2A5.19,5.19,0,0,0,2,11.5,5,5,0,0,0,7,17h3a.94.94,0,0,0,1-1h0a.94.94,0,0,0-1-1ZM9,11h6a.94.94,0,0,1,1,1h0a.94.94,0,0,1-1,1H9a.94.94,0,0,1-1-1H8a.94.94,0,0,1,1-1Z" fill="#212121"/></svg>