<?xml version="1.0" encoding="UTF-8" standalone="no"?>
<!-- Generator: Adobe Illustrator 17.0.0, SVG Export Plug-In . SVG Version: 6.00 Build 0)  -->

<svg
   xmlns:dc="http://purl.org/dc/elements/1.1/"
   xmlns:cc="http://creativecommons.org/ns#"
   xmlns:rdf="http://www.w3.org/1999/02/22-rdf-syntax-ns#"
   xmlns:svg="http://www.w3.org/2000/svg"
   xmlns="http://www.w3.org/2000/svg"
   xmlns:sodipodi="http://sodipodi.sourceforge.net/DTD/sodipodi-0.dtd"
   xmlns:inkscape="http://www.inkscape.org/namespaces/inkscape"
   version="1.1"
   id="Ebene_1"
   x="0px"
   y="0px"
   width="20"
   height="20"
   viewBox="0 0 20 20"
   enable-background="new 0 0 28 28"
   xml:space="preserve"
   sodipodi:docname="ico_alarm_outline.svg"
   inkscape:version="0.92.2 (5c3e80d, 2017-08-06)"><metadata
     id="metadata50"><rdf:RDF><cc:Work
         rdf:about=""><dc:format>image/svg+xml</dc:format><dc:type
           rdf:resource="http://purl.org/dc/dcmitype/StillImage" /><dc:title></dc:title></cc:Work></rdf:RDF></metadata><defs
     id="defs48" /><sodipodi:namedview
     pagecolor="#ffffff"
     bordercolor="#666666"
     borderopacity="1"
     objecttolerance="10"
     gridtolerance="10"
     guidetolerance="10"
     inkscape:pageopacity="0"
     inkscape:pageshadow="2"
     inkscape:window-width="1920"
     inkscape:window-height="1017"
     id="namedview46"
     showgrid="false"
     inkscape:zoom="28.578125"
     inkscape:cx="14"
     inkscape:cy="14"
     inkscape:window-x="3832"
     inkscape:window-y="-8"
     inkscape:window-maximized="1"
     inkscape:current-layer="Ebene_1" /><g
     id="g10"
     transform="matrix(1.0721112,0,0,1.0721112,-4.9461335,-5.0729788)"><path
       style="clip-rule:evenodd;fill:#e80000;fill-rule:evenodd"
       inkscape:connector-curvature="0"
       id="path6"
       d="M 14,22.7 C 9.2,22.7 5.3,18.8 5.3,14 5.3,9.2 9.2,5.3 14,5.3 c 4.8,0 8.7,3.9 8.7,8.7 0,4.8 -3.9,8.7 -8.7,8.7 z" /><path
       style="fill:#ffffff"
       inkscape:connector-curvature="0"
       id="path8"
       d="m 14,5.8 c 4.5,0 8.2,3.7 8.2,8.2 0,4.5 -3.7,8.2 -8.2,8.2 C 9.5,22.2 5.8,18.5 5.8,14 5.8,9.5 9.5,5.8 14,5.8 m 0,-1 c -5.1,0 -9.2,4.1 -9.2,9.2 0,5.1 4.1,9.2 9.2,9.2 5.1,0 9.2,-4.1 9.2,-9.2 0,-5.1 -4.1,-9.2 -9.2,-9.2 z" /></g><polygon
     style="fill:#efefef"
     id="polygon12"
     points="17,9 14,13 17,13 11,20 13,15 10,15 13,9 "
     transform="matrix(1.0721112,0,0,1.0721112,-4.7674484,-5.251664)" /><g
     id="g15"
     transform="matrix(0.71474077,0,0,0.71474077,0.05705185,-0.06979342)" /><g
     id="g17"
     transform="matrix(0.71474077,0,0,0.71474077,0.05705185,-0.06979342)" /><g
     id="g19"
     transform="matrix(0.71474077,0,0,0.71474077,0.05705185,-0.06979342)" /><g
     id="g21"
     transform="matrix(0.71474077,0,0,0.71474077,0.05705185,-0.06979342)" /><g
     id="g23"
     transform="matrix(0.71474077,0,0,0.71474077,0.05705185,-0.06979342)" /><g
     id="g25"
     transform="matrix(0.71474077,0,0,0.71474077,0.05705185,-0.06979342)" /><g
     id="g27"
     transform="matrix(0.71474077,0,0,0.71474077,0.05705185,-0.06979342)" /><g
     id="g29"
     transform="matrix(0.71474077,0,0,0.71474077,0.05705185,-0.06979342)" /><g
     id="g31"
     transform="matrix(0.71474077,0,0,0.71474077,0.05705185,-0.06979342)" /><g
     id="g33"
     transform="matrix(0.71474077,0,0,0.71474077,0.05705185,-0.06979342)" /><g
     id="g35"
     transform="matrix(0.71474077,0,0,0.71474077,0.05705185,-0.06979342)" /><g
     id="g37"
     transform="matrix(0.71474077,0,0,0.71474077,0.05705185,-0.06979342)" /><g
     id="g39"
     transform="matrix(0.71474077,0,0,0.71474077,0.05705185,-0.06979342)" /><g
     id="g41"
     transform="matrix(0.71474077,0,0,0.71474077,0.05705185,-0.06979342)" /><g
     id="g43"
     transform="matrix(0.71474077,0,0,0.71474077,0.05705185,-0.06979342)" /></svg>