<?xml version="1.0" encoding="UTF-8" standalone="no"?>
<!-- Generator: Adobe Illustrator 17.0.0, SVG Export Plug-In . SVG Version: 6.00 Build 0)  -->

<svg
   xmlns:dc="http://purl.org/dc/elements/1.1/"
   xmlns:cc="http://creativecommons.org/ns#"
   xmlns:rdf="http://www.w3.org/1999/02/22-rdf-syntax-ns#"
   xmlns:svg="http://www.w3.org/2000/svg"
   xmlns="http://www.w3.org/2000/svg"
   xmlns:sodipodi="http://sodipodi.sourceforge.net/DTD/sodipodi-0.dtd"
   xmlns:inkscape="http://www.inkscape.org/namespaces/inkscape"
   version="1.1"
   id="Ebene_1"
   x="0px"
   y="0px"
   width="20"
   height="20"
   viewBox="0 0 20 20"
   enable-background="new 0 0 28 28"
   xml:space="preserve"
   sodipodi:docname="ico_warning_outline.svg"
   inkscape:version="0.92.2 (5c3e80d, 2017-08-06)"><metadata
     id="metadata50"><rdf:RDF><cc:Work
         rdf:about=""><dc:format>image/svg+xml</dc:format><dc:type
           rdf:resource="http://purl.org/dc/dcmitype/StillImage" /><dc:title></dc:title></cc:Work></rdf:RDF></metadata><defs
     id="defs48" /><sodipodi:namedview
     pagecolor="#ffffff"
     bordercolor="#666666"
     borderopacity="1"
     objecttolerance="10"
     gridtolerance="10"
     guidetolerance="10"
     inkscape:pageopacity="0"
     inkscape:pageshadow="2"
     inkscape:window-width="1920"
     inkscape:window-height="1017"
     id="namedview46"
     showgrid="false"
     inkscape:zoom="28.578125"
     inkscape:cx="14"
     inkscape:cy="14"
     inkscape:window-x="3832"
     inkscape:window-y="-8"
     inkscape:window-maximized="1"
     inkscape:current-layer="Ebene_1" /><g
     id="g8"
     transform="matrix(0.83986804,0,0,0.93016946,-1.7822094,-3.2446357)"><polygon
       style="clip-rule:evenodd;fill:#f29e28;fill-rule:evenodd"
       id="polygon4"
       points="13.9,5.3 24.9,22.5 3.1,22.5 " /><path
       style="fill:#ffffff"
       inkscape:connector-curvature="0"
       id="path6"
       d="M 13.9,6.3 24,22 H 4 L 13.9,6.3 m 0,-1.9 -0.8,1.3 -9.9,15.8 -1,1.5 H 4 24 25.8 l -1,-1.5 -10,-15.8 z" /></g><rect
     style="clip-rule:evenodd;fill:#ffffff;fill-rule:evenodd;stroke-width:0.88386625"
     id="rect10"
     height="4.650847"
     width="1.679736"
     y="7.917398"
     x="9.136076" /><rect
     style="clip-rule:evenodd;fill:#ffffff;fill-rule:evenodd;stroke-width:0.88386625"
     id="rect12"
     height="1.8603388"
     width="1.679736"
     y="13.498415"
     x="9.136076" /><g
     id="g15"
     transform="matrix(0.83986804,0,0,0.93016946,-1.7822094,-3.2446357)" /><g
     id="g17"
     transform="matrix(0.83986804,0,0,0.93016946,-1.7822094,-3.2446357)" /><g
     id="g19"
     transform="matrix(0.83986804,0,0,0.93016946,-1.7822094,-3.2446357)" /><g
     id="g21"
     transform="matrix(0.83986804,0,0,0.93016946,-1.7822094,-3.2446357)" /><g
     id="g23"
     transform="matrix(0.83986804,0,0,0.93016946,-1.7822094,-3.2446357)" /><g
     id="g25"
     transform="matrix(0.83986804,0,0,0.93016946,-1.7822094,-3.2446357)" /><g
     id="g27"
     transform="matrix(0.83986804,0,0,0.93016946,-1.7822094,-3.2446357)" /><g
     id="g29"
     transform="matrix(0.83986804,0,0,0.93016946,-1.7822094,-3.2446357)" /><g
     id="g31"
     transform="matrix(0.83986804,0,0,0.93016946,-1.7822094,-3.2446357)" /><g
     id="g33"
     transform="matrix(0.83986804,0,0,0.93016946,-1.7822094,-3.2446357)" /><g
     id="g35"
     transform="matrix(0.83986804,0,0,0.93016946,-1.7822094,-3.2446357)" /><g
     id="g37"
     transform="matrix(0.83986804,0,0,0.93016946,-1.7822094,-3.2446357)" /><g
     id="g39"
     transform="matrix(0.83986804,0,0,0.93016946,-1.7822094,-3.2446357)" /><g
     id="g41"
     transform="matrix(0.83986804,0,0,0.93016946,-1.7822094,-3.2446357)" /><g
     id="g43"
     transform="matrix(0.83986804,0,0,0.93016946,-1.7822094,-3.2446357)" /></svg>