<?xml version="1.0" encoding="UTF-8" standalone="no"?>
<!-- Created with Inkscape (http://www.inkscape.org/) -->

<svg
   xmlns:dc="http://purl.org/dc/elements/1.1/"
   xmlns:cc="http://creativecommons.org/ns#"
   xmlns:rdf="http://www.w3.org/1999/02/22-rdf-syntax-ns#"
   xmlns:svg="http://www.w3.org/2000/svg"
   xmlns="http://www.w3.org/2000/svg"
   xmlns:sodipodi="http://sodipodi.sourceforge.net/DTD/sodipodi-0.dtd"
   xmlns:inkscape="http://www.inkscape.org/namespaces/inkscape"
   width="25"
   height="25"
   id="svg3051"
   version="1.1"
   inkscape:version="0.48.4 r9939"
   sodipodi:docname="locked2.svg">
  <defs
     id="defs3053" />
  <sodipodi:namedview
     id="base"
     pagecolor="#ffffff"
     bordercolor="#666666"
     borderopacity="1.0"
     inkscape:pageopacity="0.0"
     inkscape:pageshadow="2"
     inkscape:zoom="22.4"
     inkscape:cx="17.957389"
     inkscape:cy="14.934949"
     inkscape:document-units="px"
     inkscape:current-layer="layer1"
     showgrid="false"
     inkscape:window-width="1920"
     inkscape:window-height="1137"
     inkscape:window-x="1912"
     inkscape:window-y="10"
     inkscape:window-maximized="1" />
  <metadata
     id="metadata3056">
    <rdf:RDF>
      <cc:Work
         rdf:about="">
        <dc:format>image/svg+xml</dc:format>
        <dc:type
           rdf:resource="http://purl.org/dc/dcmitype/StillImage" />
        <dc:title></dc:title>
      </cc:Work>
    </rdf:RDF>
  </metadata>
  <g
     inkscape:label="Ebene 1"
     inkscape:groupmode="layer"
     id="layer1"
     transform="translate(0,-1027.3622)"
     style="display:inline">
    <rect
       style="fill:#000000"
       id="rect2989"
       width="11.050888"
       height="9.8712988"
       x="7.0330906"
       y="1038.7345"
       rx="1.2516062"
       ry="1.2516062" />
    <path
       style="fill:#000000"
       d="m 9.3083653,1031.7944 c -0.7920303,0.3981 -1.4558622,1.0687 -1.7989157,1.8997 -0.3866131,0.9048 -0.4286715,1.9386 -0.2188183,2.9035 0.1948102,0.9064 0.5819797,1.7579 0.9929327,2.5851 0.014541,0.048 0.043391,0.078 0.094653,0.06 0.1451504,-0.026 0.2699515,-0.1111 0.4078258,-0.1592 0.224299,-0.1009 0.4441765,-0.2147 0.6443187,-0.3586 0.00408,-0.1 -0.079899,-0.1739 -0.098435,-0.2687 -0.3041271,-0.733 -0.528833,-1.4997 -0.6613602,-2.2808 -0.1046723,-0.7914 0.013286,-1.6279 0.425143,-2.3089 0.3187856,-0.5066 0.8412042,-0.847 1.3950316,-1.0419 0.491484,-0.175 1.039931,-0.2124 1.546596,-0.057 0.642032,0.1852 1.220096,0.561 1.712976,1.0142 0.625925,0.583 1.096489,1.3099 1.518231,2.0502 0.01431,0.055 0.05153,0.055 0.0948,0.031 0.142861,-0.061 0.277226,-0.1403 0.419539,-0.2028 0.216416,-0.1068 0.432834,-0.2135 0.649256,-0.3201 -0.48179,-0.9646 -0.991151,-1.9408 -1.750344,-2.7178 -0.717466,-0.7362 -1.658277,-1.2765 -2.67386,-1.4071 -0.810638,-0.1074 -1.647266,0.04 -2.3672017,0.4171 -0.1117838,0.052 -0.2218041,0.1074 -0.332372,0.1618 z"
       id="path3011"
       inkscape:connector-curvature="0" />
  </g>
</svg>
