<?xml version="1.0" encoding="utf-8"?>
<!-- Generator: Adobe Illustrator 17.0.0, SVG Export Plug-In . SVG Version: 6.00 Build 0)  -->
<!DOCTYPE svg PUBLIC "-//W3C//DTD SVG 1.1//EN" "http://www.w3.org/Graphics/SVG/1.1/DTD/svg11.dtd">
<svg version="1.1" id="Ebene_1" xmlns="http://www.w3.org/2000/svg" xmlns:xlink="http://www.w3.org/1999/xlink" x="0px" y="0px"
	 width="28px" height="28px" viewBox="0 0 28 28" enable-background="new 0 0 28 28" xml:space="preserve">
<g id="ico_x5F_alarm_x5F_outline.svg">
	<g opacity="0">
		<rect opacity="0.3" fill-rule="evenodd" clip-rule="evenodd" fill="#5B5B5B" width="28" height="28"/>
	</g>
	<g>
		<path fill-rule="evenodd" clip-rule="evenodd" fill="#E80000" d="M14,22.7c-4.8,0-8.7-3.9-8.7-8.7S9.2,5.3,14,5.3s8.7,3.9,8.7,8.7
			S18.8,22.7,14,22.7z"/>
		<path fill="#FFFFFF" d="M14,5.8c4.5,0,8.2,3.7,8.2,8.2s-3.7,8.2-8.2,8.2S5.8,18.5,5.8,14S9.5,5.8,14,5.8 M14,4.8
			c-5.1,0-9.2,4.1-9.2,9.2c0,5.1,4.1,9.2,9.2,9.2s9.2-4.1,9.2-9.2C23.2,8.9,19.1,4.8,14,4.8L14,4.8z"/>
	</g>
	<polygon fill="#EFEFEF" points="13,9 17,9 14,13 17,13 11,20 13,15 10,15 	"/>
</g>
<g>
</g>
<g>
</g>
<g>
</g>
<g>
</g>
<g>
</g>
<g>
</g>
<g>
</g>
<g>
</g>
<g>
</g>
<g>
</g>
<g>
</g>
<g>
</g>
<g>
</g>
<g>
</g>
<g>
</g>
</svg>
