<svg id="9391a965-b3e4-40ea-8b02-b3bcbb247ab7" data-name="ICO: password" xmlns="http://www.w3.org/2000/svg" width="38" height="38" viewBox="0 0 38 38"><defs><style>.e6dae46e-f5fe-4e53-9a66-e7d214e64f4d{fill:#252525;}</style></defs><title>SmartHMI-IconsWidgets2_v0-1_2016-05-02</title><path class="e6dae46e-f5fe-4e53-9a66-e7d214e64f4d" d="M0,8V30H38V8H0ZM36,28H2V10H36V28ZM9.6,20.1L7.7,22.6l1.1,0.7,1.3-2.8h0l1.2,2.8,1.3-.7-1.9-2.4h0l3,0.4V19.1l-3,.4h0L12.6,17l-1.2-.7-1.2,2.8h0L8.9,16.3,7.7,17l1.9,2.4h0l-2.9-.4v1.4l3-.4h0Zm8.7,0-1.9,2.4,1.1,0.7,1.3-2.8h0L20,23.3l1.3-.7-1.9-2.4h0l3,0.4V19.1l-3,.4h0L21.3,17l-1.2-.7-1.2,2.8h0l-1.2-2.8-1.2.7,1.9,2.4h0l-2.9-.4v1.4l3-.4h0Zm8.7,0-1.9,2.4,1.1,0.7,1.3-2.8h0l1.2,2.8,1.3-.7-1.9-2.4h0l3,0.4V19.1l-3,.4h0L30,17l-1.2-.7-1.2,2.8h0l-1.2-2.8-1.2.7,1.9,2.4h0L24,19.1v1.4l3-.4h0Z"/></svg>