<!-- Generated by IcoMoon.io -->
<svg version="1.1" xmlns="http://www.w3.org/2000/svg" width="32" height="32" viewBox="0 0 32 32">
<title>ico_delete</title>
<path d="M21.074 9.143h-2.789v-1.143c0-0.823-0.411-1.143-1.143-1.143h-2.286c-0.731 0-1.040 0.446-1.143 1.143v1.143h-2.789c-1.474 0-1.783 0.869-1.783 2.286h13.714c0-1.417-0.309-2.286-1.783-2.286zM14.857 8h2.286v1.143h-2.286v-1.143zM10.286 26.286h11.429v-13.714h-11.429v13.714zM18.286 13.714h2.286v10.286h-2.286v-10.286zM14.857 13.714h2.286v10.286h-2.286v-10.286zM13.714 13.714v10.286h-2.286v-10.286h2.286z"></path>
</svg>
